PathFileType	4	(X/Y/Z)	0_1_22_p0_0-274.trc
DataRate	CameraRate	NumFrames	NumMarkers	Units	OrigDataRate	OrigDataStartFrame	OrigNumFrames
60	60	7	27	m	60	0	274
Frame#	Time	RHip			RKnee			RAnkle			RBigToe			RSmallToe			RHeel			LHip			LKnee			LAnkle			LBigToe			LSmallToe			LHeel			Neck			Head			Nose			RShoulder			RElbow			RWrist			RThumb			RIndex			RPinky			LShoulder			LElbow			LWrist			LThumb			LIndex			LPinky		
		X1	Y1	Z1	X2	Y2	Z2	X3	Y3	Z3	X4	Y4	Z4	X5	Y5	Z5	X6	Y6	Z6	X7	Y7	Z7	X8	Y8	Z8	X9	Y9	Z9	X10	Y10	Z10	X11	Y11	Z11	X12	Y12	Z12	X13	Y13	Z13	X14	Y14	Z14	X15	Y15	Z15	X16	Y16	Z16	X17	Y17	Z17	X18	Y18	Z18	X19	Y19	Z19	X20	Y20	Z20	X21	Y21	Z21	X22	Y22	Z22	X23	Y23	Z23	X24	Y24	Z24	X25	Y25	Z25	X26	Y26	Z26	X27	Y27	Z27
1	0.0166666666666666	0.11657849737148779	0.20674449659942434	0.02755415549598236	0.12930651584564495	0.24052920170148379	-0.4197529881299547	0.1545570314604922	0.2027918120010133	-0.7866735490874947	0.17111066751337017	0.05156541594475911	-0.7877153737743073	0.09919830321879469	0.0852893760178944	-0.7943399683152937	0.16798646631639222	0.22317596035347476	-0.8251221661821465	0.33218762912796923	0.20716960122158407	0.016873458081963874	0.34017871121034376	0.21389966175427155	-0.4090722919915558	0.35344971227644195	0.23952468499806837	-0.8241737776636425	0.3174234206040797	0.06144525159476181	-0.7850983883598585	0.3697917409779905	0.11121096723542226	-0.8037513693246845	0.34536803553976164	0.28768847569317324	-0.8802815553699059	0.2074721817733036	0.3070332638629846	0.5336189290382735	0.186020989989551	0.2087841208912879	0.797293785238088	0.18156855035651095	0.1660141090489679	0.6625920054950177	0.04983778216818637	0.24803840329887855	0.4877685501068535	0.012658274387790863	0.2189153703397573	0.22868317822662446	0.14357304172726287	0.05824835233072294	0.0769498717959006	0.23250776601581058	0.031178087780266893	0.03561723137221432	0.2418034579452774	0.05480237357725665	0.00015859053677380554	0.20699685503373888	0.03953320872940605	-0.007868940249251652	0.3599957931432604	0.25896061780774926	0.47952218992087736	0.4185391653429804	0.2509104390573301	0.22719086605737984	0.30096548772587195	0.07834224115520053	0.10063032218152762	0.2236613459478538	0.011798968037839246	0.0699982325268382	0.2232407482795305	0.006348024610413834	0.04775171403889699	0.2473584003331602	0.06571226255410005	-0.003985561853994027
2	0.0333333333333333	0.1165451506587663	0.20687461424909823	0.027633270795904573	0.12915507822407368	0.24060619872982741	-0.41965061004507176	0.1556034553810262	0.20245587305157603	-0.7865577998672159	0.17451803932183269	0.05907755669938135	-0.7910128018747987	0.0992174548662286	0.08534145637136681	-0.794308376322372	0.1681151850521626	0.22334857010408743	-0.8250366216583824	0.33126461221228287	0.21159880195025382	0.015511456542274689	0.33511644901899124	0.2129804214351181	-0.4084613435683594	0.3534431194783019	0.23967532965299312	-0.824310622378984	0.3189918670293095	0.06038339499607416	-0.7875295176592221	0.3705752349714564	0.1130063746959171	-0.8051696775223536	0.34540627595828477	0.2876987191762313	-0.8803443785185657	0.20750144957965158	0.30693310953470637	0.5335820515425223	0.1859605300110978	0.20820589843975185	0.795789296137028	0.1814905231799667	0.16594026438076548	0.6626473910334061	0.05231078919921234	0.25620024304654726	0.484365030478744	0.01254242379618126	0.21938346786106624	0.22997341312527053	0.14362899408831464	0.0587907308885744	0.078287091689297	0.23067117266735254	0.026972281448513054	0.03759390978179558	0.23827497769912706	0.05688794131508765	-0.0032970480448307935	0.20507036013819416	0.04638664263929496	-0.011195104079925695	0.3587882220689259	0.2561967960982433	0.4801897207528242	0.41870029197146963	0.2503740537245217	0.22596228863499862	0.2990440787514511	0.07385308688618243	0.10262751772040933	0.22511805213119207	0.014292649169803629	0.07240814150643517	0.2230997770680716	0.006721553298278372	0.04959042110904806	0.2475862610805601	0.060994148409109744	0.002748233428421774
3	0.05	0.11652245543438867	0.20694095068534069	0.027613831805208634	0.12903040899830323	0.2406922855394815	-0.41953356026830985	0.15568224519296098	0.20249908080021672	-0.7866586586161907	0.1763712443498998	0.06445893541621464	-0.7936399264701702	0.09921911626154031	0.08539713432840212	-0.7942845261374559	0.16818178229834652	0.2234706973866623	-0.8249806767326089	0.33057831332183446	0.2149007514722659	0.014756349115825093	0.3320126583537846	0.21256948067122344	-0.40752997514646205	0.35344456209574193	0.23971047717946134	-0.824354982682793	0.3193175514090226	0.06014622075589613	-0.7895888033774827	0.3714817802563281	0.11503339956434669	-0.8067488746314352	0.3454196910832624	0.2877094792226402	-0.880378228732212	0.20752672444711426	0.306873847735387	0.5335608835779516	0.18592941383494777	0.20807728558802085	0.7954045053925188	0.18142181230722318	0.1658630235995561	0.6626992289746473	0.05381873319493756	0.2610804284397224	0.48253051801943847	0.01242032003867201	0.21982346853185752	0.23119788951661502	0.1436711555269261	0.05928068639755068	0.07952681302719933	0.22893972964626336	0.022976589164742066	0.03952172625562229	0.23566581493585503	0.05705797719673071	-0.004793090424788356	0.20393253354902552	0.05106881860037233	-0.01312771299336504	0.358128898922395	0.2546738727731228	0.4805246982236042	0.41880057701449436	0.25001890676413024	0.22434412336763732	0.29738799512077324	0.07009725078477687	0.1042961793384824	0.2255409209289957	0.014946407715067885	0.07490049826424727	0.22229609179116996	0.0074216732929511834	0.05080599920414966	0.24729445686474508	0.05727755270580641	0.007477439458171917
4	0.0666666666666666	0.11654684100637958	0.20685138858884983	0.02724841576848337	0.1289638439218306	0.2407726541131573	-0.4195347474385471	0.15510439735587644	0.20282092034989604	-0.7867536154243538	0.17652121649401567	0.06780957770077792	-0.795552353711036	0.09920594194156773	0.08544030571310787	-0.7942664668193891	0.16818638313195478	0.22353703406954922	-0.8249497748274472	0.3303611671575937	0.21604157195670198	0.014586116145122613	0.33119515777207365	0.21326957167840044	-0.406198838171552	0.35346367743349144	0.23958153096157697	-0.8242851738642256	0.31864603770737027	0.060592997610249326	-0.7909183690835738	0.37190793493588675	0.11597485803284806	-0.8074829024124818	0.3454085330237209	0.2877031788633911	-0.8803840111268534	0.2075409567775709	0.30686110193072486	0.5335586953369915	0.1859265884310894	0.20836440937309086	0.7960793428585393	0.18146085248630048	0.16602356644845762	0.6626921431856936	0.05428889760212498	0.2623955612103682	0.48244370046101054	0.012318907898543901	0.22011442379029533	0.23194041999452736	0.14368733065455733	0.05960741855771147	0.08034501931343957	0.22775664397674653	0.02025953405268363	0.0408885034954225	0.2347913992269232	0.05708671426073241	-0.0046261641452303055	0.20398850377868777	0.05415842233845991	-0.01369800350821148	0.3573591785139744	0.2529079437460651	0.48100286756490607	0.41880252534668894	0.25000265671430555	0.22241958064360037	0.29665872581671165	0.06860919350781343	0.10497826673588978	0.2254610162398406	0.014955412886524327	0.07664483811460533	0.220970627275351	0.00852150232165196	0.051363003103011444	0.24630982942691682	0.057161168362764324	0.009287228807646085
5	0.0833333333333333	0.11664068773943707	0.20656078578391263	0.026337002430070776	0.12901811243916447	0.24077225187349086	-0.4199679069585969	0.15465567194452962	0.20324018466254895	-0.7864138486927654	0.17590614763405418	0.07023726242968771	-0.7966804146134092	0.09919966187239793	0.08544752679530786	-0.7942449623707126	0.168169235652818	0.22361239809081462	-0.8249456334684759	0.3304207380747236	0.216076813848826	0.014161468904294603	0.3319438420988759	0.21549875617260103	-0.4052227034237001	0.3534840326680037	0.23944123145116059	-0.8242133377998472	0.3179896769267145	0.061051078781103794	-0.7910974145005985	0.37137258170369813	0.11480719833442472	-0.806593470355527	0.3453907741530125	0.2876856062022048	-0.8803859727625116	0.2075403611585886	0.3068839857557172	0.5335677553621565	0.18592950294320426	0.20871252068220641	0.7969301497421319	0.18180107539155269	0.1669390496238384	0.6625229008883093	0.05425618143481059	0.26195730050188826	0.48331113191811026	0.012269032440795625	0.22014541063518622	0.23182125591959285	0.14367179096957242	0.05975591150716608	0.08069424903860925	0.22735278693436256	0.019424924323397267	0.04135570280792977	0.23564428593011377	0.059390479958125325	-0.003830334292738246	0.205200299575746	0.05759553234371389	-0.014067183691397034	0.3561707141083236	0.25029880824024364	0.48201499464422604	0.4187326909842235	0.2502607112573888	0.22066969079658383	0.2969748480783264	0.0695604395520204	0.10460118462412765	0.2256874977218951	0.01581547956092357	0.07714784327937241	0.2198543517692686	0.009648377853383166	0.05196277490360867	0.24469593181302776	0.06042823386630545	0.009286008965350118
6	0.1	0.1167478497031445	0.20617242212046957	0.025125763995530084	0.12923988017321958	0.2406017413865372	-0.4210452924280189	0.1545781784528846	0.20375478148474754	-0.7855502691905455	0.1753435331052701	0.07235772584713544	-0.7969470304808448	0.09921713827366635	0.08542667362522137	-0.7942218057603738	0.16816199703869206	0.2237422441614544	-0.824978258875757	0.3303429209422311	0.21695563167046583	0.013044336733734872	0.3333867733163893	0.21836998918385248	-0.4056043842268553	0.35342446545575135	0.23976154507369704	-0.8244581804229496	0.318029908118302	0.06108911753675643	-0.7904082433946886	0.3704162748464462	0.11272905040422328	-0.8049977073194027	0.34537660217954613	0.287689374460568	-0.8804022159217237	0.20752797664121897	0.30692905847777974	0.5335787990938883	0.1859256296378201	0.20889561712396498	0.7973728058140013	0.18249784433934207	0.16878476074609014	0.6621662500749674	0.054142761176604534	0.26134157396568797	0.4842270304370724	0.012268405492465646	0.21994940406308358	0.2309590574300171	0.14361574870140148	0.059847444257498564	0.08103808404825238	0.22743375159291346	0.01980143633027329	0.041193984800100496	0.23694355267267314	0.06263223250451551	-0.002367190236139236	0.2069576594299098	0.061607468161184266	-0.014944139911763535	0.3555554296464256	0.24922473636566425	0.4831207551910577	0.4186602857797706	0.2505451394990741	0.21956708472384234	0.29738620122717896	0.07065357316221749	0.1041395561916373	0.22587705336430297	0.01652902366784869	0.07732835081106529	0.21924734959316877	0.01012436373253491	0.05316050196462897	0.24268100962212635	0.06266397982713687	0.009367676128428858
7	0.1166666666666666	0.11676451810696473	0.205848096083646	0.024115390597590103	0.12955122263065694	0.2402652571107431	-0.4224266763940263	0.15467729712900163	0.2041847445973694	-0.7847415496173822	0.17514457569547848	0.07354553137313678	-0.7965772207982228	0.09925392451434285	0.08540139378031551	-0.7942074328467831	0.16816869532578044	0.2238830509060925	-0.82503520113803	0.33009756589002265	0.2185796731438198	0.011877889506008717	0.334423087449908	0.21926990392969514	-0.4066898553034183	0.35316289824961156	0.24112645008246128	-0.825426830333613	0.31894439786807305	0.060626389714737924	-0.7900741392874151	0.3698080575064236	0.11141331820412081	-0.8039823484443507	0.34536262147074137	0.28773193813325015	-0.8804343451899739	0.20751142574079318	0.30697066362462394	0.5335880971881368	0.18592074931749505	0.20892978620714125	0.7974325947699283	0.18331233000766922	0.170950784408268	0.6617512939166039	0.054074179999048136	0.26108850065826816	0.4846956636318568	0.012276682186535017	0.2197401876978739	0.23008439179682338	0.14351591908827194	0.05995536299337933	0.08182687184697354	0.22749282245599023	0.02010941463443822	0.041016043797693094	0.23705806898449786	0.06306926616219609	0.00023253158588161749	0.208334050449855	0.06469348192467064	-0.01584806716260181	0.3562633175492362	0.2513218451590873	0.48366155624862406	0.41863539634741737	0.25069542472451545	0.21917554668713982	0.2970773158308212	0.06997986082060736	0.10440672369536044	0.22544449866037636	0.01574061448537581	0.07821073123288312	0.2186677062574542	0.009240288880918187	0.0548339166620475	0.24080125008867231	0.06139455238298263	0.010099505699411912
